<svg id="Capa_1" enable-background="new 0 0 497 497" height="512" viewBox="0 0 497 497" width="512" xmlns="http://www.w3.org/2000/svg"><g><path d="m497 139.5v268c0 22.09-17.91 40-40 40h-417c-22.09 0-40-17.91-40-40v-268z" fill="#f5f5f5"/><path d="m497 159.5v-20l-248.5-10-248.5 10v20 248c0 22.09 17.91 40 40 40h20c-22.09 0-40-17.91-40-40v-248z" fill="#e6e6e6"/><path d="m497 89.5v50h-497v-50c0-22.09 17.91-40 40-40h417c22.09 0 40 17.91 40 40z" fill="#50758d"/><g fill="#2b597f"><path d="m474.5 94.5c0-12.406-10.093-22.5-22.5-22.5h-213c-6.385 0-12.152 2.677-16.251 6.963-4.767 4.757-2.529 2.519-7.286 7.286-4.286 4.099-6.963 9.866-6.963 16.251 0 12.406 10.093 22.5 22.5 22.5h213c6.385 0 12.152-2.677 16.251-6.963 4.767-4.757 2.529-2.519 7.286-7.286 4.286-4.099 6.963-9.866 6.963-16.251z"/><path d="m68.25 94.25c0-12.406-10.093-22.5-22.5-22.5-6.385 0-12.152 2.677-16.251 6.963-4.767 4.757-2.529 2.519-7.286 7.286-4.286 4.099-6.963 9.866-6.963 16.251 0 12.406 10.093 22.5 22.5 22.5 6.385 0 12.152-2.677 16.251-6.963 4.767-4.757 2.529-2.519 7.286-7.286 4.286-4.099 6.963-9.866 6.963-16.251z"/><path d="m132.5 94.25c0-12.406-10.093-22.5-22.5-22.5-6.385 0-12.152 2.677-16.251 6.963-4.767 4.757-2.529 2.519-7.286 7.286-4.286 4.099-6.963 9.866-6.963 16.251 0 12.406 10.093 22.5 22.5 22.5 6.385 0 12.152-2.677 16.251-6.963 4.767-4.757 2.529-2.519 7.286-7.286 4.286-4.099 6.963-9.866 6.963-16.251z"/><path d="m196.5 94.25c0-12.406-10.093-22.5-22.5-22.5-6.385 0-12.152 2.677-16.251 6.963-4.767 4.757-2.529 2.519-7.286 7.286-4.286 4.099-6.963 9.866-6.963 16.251 0 12.406 10.093 22.5 22.5 22.5 6.385 0 12.152-2.677 16.251-6.963 4.767-4.757 2.529-2.519 7.286-7.286 4.286-4.099 6.963-9.866 6.963-16.251z"/></g><path d="m45.75 116.75c-12.407 0-22.5-10.094-22.5-22.5s10.093-22.5 22.5-22.5 22.5 10.094 22.5 22.5-10.093 22.5-22.5 22.5z" fill="#fd646f"/><path d="m110 117c-12.407 0-22.5-10.094-22.5-22.5s10.093-22.5 22.5-22.5 22.5 10.094 22.5 22.5-10.093 22.5-22.5 22.5z" fill="#ffc682"/><path d="m174 117c-12.407 0-22.5-10.094-22.5-22.5s10.093-22.5 22.5-22.5 22.5 10.094 22.5 22.5-10.093 22.5-22.5 22.5z" fill="#93ddb7"/><path d="m452 117h-213c-12.407 0-22.5-10.094-22.5-22.5s10.093-22.5 22.5-22.5h213c12.407 0 22.5 10.094 22.5 22.5s-10.093 22.5-22.5 22.5z" fill="#f5f5f5"/><g fill="#50758d"><path d="m216.697 381.904c-2.099 0-4.231-.423-6.278-1.317-7.948-3.472-11.577-12.729-8.105-20.678l63.589-145.584c3.472-7.947 12.728-11.574 20.678-8.105 7.948 3.472 11.577 12.729 8.105 20.678l-63.589 145.584c-2.578 5.902-8.346 9.422-14.4 9.422z"/><path d="m153.883 376.245c-4.019 0-8.039-1.533-11.105-4.599l-58.892-58.892c-6.132-6.133-6.132-16.077 0-22.21l58.107-58.107c6.133-6.133 16.077-6.133 22.21 0 6.132 6.133 6.132 16.077 0 22.21l-47.002 47.002 47.788 47.787c6.132 6.133 6.132 16.077 0 22.21-3.067 3.066-7.087 4.599-11.106 4.599z"/><path d="m343.117 376.245c4.019 0 8.039-1.533 11.105-4.599l58.892-58.892c6.132-6.133 6.132-16.077 0-22.21l-58.107-58.107c-6.133-6.133-16.077-6.133-22.21 0-6.132 6.133-6.132 16.077 0 22.21l47.002 47.002-47.788 47.787c-6.132 6.133-6.132 16.077 0 22.21 3.067 3.066 7.087 4.599 11.106 4.599z"/></g></g></svg>