<svg xmlns="http://www.w3.org/2000/svg" width="58.182" height="50" viewBox="0 0 58.182 50">
  <path id="code" d="M51.364,0H6.818A6.826,6.826,0,0,0,0,6.818V34.091a6.826,6.826,0,0,0,6.818,6.818h20v4.545H15V50H43.182V45.455H31.364V40.909h20a6.826,6.826,0,0,0,6.818-6.818V6.818A6.826,6.826,0,0,0,51.364,0Zm2.273,34.091a2.275,2.275,0,0,1-2.273,2.273H6.818a2.275,2.275,0,0,1-2.273-2.273V6.818A2.275,2.275,0,0,1,6.818,4.545H51.364a2.275,2.275,0,0,1,2.273,2.273ZM25.455,7.968v4.545a2.275,2.275,0,0,0-2.273,2.273v1.136a6.79,6.79,0,0,1-1.742,4.545,6.79,6.79,0,0,1,1.742,4.545V26.15a2.275,2.275,0,0,0,2.273,2.273v4.545a6.826,6.826,0,0,1-6.818-6.818V25.014a2.275,2.275,0,0,0-2.273-2.273V18.2a2.275,2.275,0,0,0,2.273-2.273V14.786A6.826,6.826,0,0,1,25.455,7.968ZM42.5,18.2v4.545a2.275,2.275,0,0,0-2.273,2.273V26.15a6.826,6.826,0,0,1-6.818,6.818V28.423a2.275,2.275,0,0,0,2.273-2.273V25.014a6.79,6.79,0,0,1,1.742-4.545,6.79,6.79,0,0,1-1.742-4.545V14.786a2.275,2.275,0,0,0-2.273-2.273V7.968a6.826,6.826,0,0,1,6.818,6.818v1.136A2.275,2.275,0,0,0,42.5,18.2Zm0,0" fill="#212121"/>
</svg>
